<svg width="27" height="24" viewBox="0 0 27 24" fill="none" xmlns="http://www.w3.org/2000/svg">
<g clip-path="url(#clip0_327_1963)">
<path d="M14.8558 0.84375C14.6073 0.328125 14.0823 0 13.5058 0C12.9292 0 12.4089 0.328125 12.1558 0.84375L9.14171 7.04531L2.41046 8.03906C1.84796 8.12344 1.37921 8.51719 1.20577 9.05625C1.03233 9.59531 1.17296 10.1906 1.57608 10.5891L6.46046 15.4219L5.30733 22.2516C5.21358 22.8141 5.44796 23.3859 5.91202 23.7188C6.37608 24.0516 6.99015 24.0938 7.4964 23.8266L13.5105 20.6156L19.5245 23.8266C20.0308 24.0938 20.6448 24.0562 21.1089 23.7188C21.573 23.3813 21.8073 22.8141 21.7136 22.2516L20.5558 15.4219L25.4401 10.5891C25.8433 10.1906 25.9886 9.59531 25.8105 9.05625C25.6323 8.51719 25.1683 8.12344 24.6058 8.03906L17.8698 7.04531L14.8558 0.84375Z" fill="#CA8A04"/>
</g>
<defs>
<clipPath id="clip0_327_1963">
<path d="M0 0H27V24H0V0Z" fill="white"/>
</clipPath>
</defs>
</svg>
