<svg width="18" height="24" viewBox="0 0 18 24" fill="none" xmlns="http://www.w3.org/2000/svg">
<g clip-path="url(#clip0_327_1898)">
<path d="M8.14539 0.258594C8.66102 -0.0835937 9.33602 -0.0835937 9.85164 0.258594L10.686 0.807031C10.9673 0.989844 11.2954 1.07891 11.6282 1.06016L12.6266 0.999219C13.2454 0.961719 13.8266 1.29922 14.1032 1.85234L14.5532 2.74766C14.7032 3.04766 14.947 3.28672 15.2423 3.43672L16.147 3.89141C16.7001 4.16797 17.0376 4.74922 17.0001 5.36797L16.9391 6.36641C16.9204 6.69922 17.0095 7.03203 17.1923 7.30859L17.7454 8.14297C18.0876 8.65859 18.0876 9.33359 17.7454 9.84922L17.1923 10.6883C17.0095 10.9695 16.9204 11.2977 16.9391 11.6305L17.0001 12.6289C17.0376 13.2477 16.7001 13.8289 16.147 14.1055L15.2516 14.5555C14.9516 14.7055 14.7126 14.9492 14.5626 15.2445L14.1079 16.1492C13.8313 16.7023 13.2501 17.0398 12.6313 17.0023L11.6329 16.9414C11.3001 16.9227 10.9673 17.0117 10.6907 17.1945L9.85633 17.7477C9.34071 18.0898 8.66571 18.0898 8.15008 17.7477L7.31102 17.1945C7.02977 17.0117 6.70164 16.9227 6.36883 16.9414L5.37039 17.0023C4.75164 17.0398 4.17039 16.7023 3.89383 16.1492L3.44383 15.2539C3.29383 14.9539 3.05008 14.7148 2.75477 14.5648L1.85008 14.1102C1.29696 13.8336 0.959456 13.2523 0.996956 12.6336L1.05789 11.6352C1.07664 11.3023 0.987581 10.9695 0.804768 10.693L0.256331 9.85391C-0.0858567 9.33828 -0.0858567 8.66328 0.256331 8.14766L0.804768 7.31328C0.987581 7.03203 1.07664 6.70391 1.05789 6.37109L0.996956 5.37266C0.959456 4.75391 1.29696 4.17266 1.85008 3.89609L2.74539 3.44609C3.04539 3.29141 3.28914 3.04766 3.43914 2.74766L3.88914 1.85234C4.16571 1.29922 4.74696 0.961719 5.36571 0.999219L6.36414 1.06016C6.69696 1.07891 7.02977 0.989844 7.30633 0.807031L8.14539 0.258594ZM12.7485 9.00078C12.7485 8.00622 12.3534 7.05239 11.6502 6.34913C10.9469 5.64587 9.99308 5.25078 8.99852 5.25078C8.00396 5.25078 7.05013 5.64587 6.34687 6.34913C5.64361 7.05239 5.24852 8.00622 5.24852 9.00078C5.24852 9.99534 5.64361 10.9492 6.34687 11.6524C7.05013 12.3557 8.00396 12.7508 8.99852 12.7508C9.99308 12.7508 10.9469 12.3557 11.6502 11.6524C12.3534 10.9492 12.7485 9.99534 12.7485 9.00078ZM0.0594558 20.7102L2.07977 15.9055C2.08914 15.9102 2.09383 15.9148 2.09852 15.9242L2.54852 16.8195C3.09696 17.907 4.23602 18.568 5.45477 18.4977L6.45321 18.4367C6.46258 18.4367 6.47664 18.4367 6.48602 18.4461L7.32039 18.9992C7.55946 19.1539 7.81258 19.2758 8.07508 19.3602L6.31258 23.5461C6.20477 23.8039 5.96571 23.9773 5.68914 24.0008C5.41258 24.0242 5.14539 23.8977 4.99539 23.6633L3.48602 21.3523L0.856331 21.7414C0.589143 21.7789 0.321956 21.6711 0.153206 21.4602C-0.0155442 21.2492 -0.0483567 20.9586 0.0547683 20.7102H0.0594558ZM11.6845 23.5414L9.92196 19.3602C10.1845 19.2758 10.4376 19.1586 10.6766 18.9992L11.511 18.4461C11.5204 18.4414 11.5298 18.4367 11.5438 18.4367L12.5423 18.4977C13.761 18.568 14.9001 17.907 15.4485 16.8195L15.8985 15.9242C15.9032 15.9148 15.9079 15.9102 15.9173 15.9055L17.9423 20.7102C18.0454 20.9586 18.0079 21.2445 17.8438 21.4602C17.6798 21.6758 17.4079 21.7836 17.1407 21.7414L14.511 21.3523L13.0016 23.6586C12.8516 23.893 12.5845 24.0195 12.3079 23.9961C12.0313 23.9727 11.7923 23.7945 11.6845 23.5414Z" fill="#16A34A"/>
</g>
<defs>
<clipPath id="clip0_327_1898">
<path d="M0 0H18V24H0V0Z" fill="white"/>
</clipPath>
</defs>
</svg>
